/* XPM */
static char * close_active_xpm[] = {
"30 22 2 1",
" 	c None",
".	c #407DEC",
"                              ",
"                              ",
"..............................",
"..............................",
"..............................",
"..............................",
"..............................",
"..............................",
"..............................",
"..............................",
"..............................",
"..............................",
"..............................",
"..............................",
"..............................",
"..............................",
"..............................",
"..............................",
"..............................",
"..............................",
"..............................",
"                              "};
